<svg width="29.999999999999996" height="29.999999999999996" xmlns="http://www.w3.org/2000/svg">

 <g>
  <title>background</title>
  <rect fill="none" id="canvas_background" height="402" width="582" y="-1" x="-1"/>
 </g>
 <g>
  <title>Layer 1</title>
  <path stroke="#ff7f00" id="svg_1" fill="#ff7f00" d="m24.7,27.2c0.5,0 0.8,-0.4 0.8,-0.8s-0.4,-0.8 -0.8,-0.8c-0.4,0 -0.8,0.4 -0.8,0.8s0.4,0.8 0.8,0.8zm3.4,-27.1l-26.2,0c-1,0 -1.8,0.8 -1.8,1.8l0,26.1c0,1 0.8,1.8 1.8,1.8l26.1,0c1,0 1.8,-0.8 1.8,-1.8l0,-26.1c0.1,-1 -0.7,-1.8 -1.7,-1.8zm0.3,28c0,0.2 -0.1,0.3 -0.3,0.3l-26.2,0c-0.2,0 -0.3,-0.1 -0.3,-0.3l0,-3.7l26.8,0l0,3.7zm0,-5.3l-26.8,0l0,-16.1l26.8,0l0,16.1zm0,-17.6l-26.8,0l0,-3.3c0,-0.2 0.1,-0.3 0.3,-0.3l26.1,0c0.2,0 0.3,0.1 0.3,0.3l0,3.3l0.1,0zm-18.4,22c0.4,0 0.8,-0.4 0.8,-0.8s-0.4,-0.8 -0.8,-0.8s-0.8,0.4 -0.8,0.8s0.4,0.8 0.8,0.8zm9.8,-24.6c-0.5,0 -0.8,0.4 -0.8,0.8s0.4,0.8 0.8,0.8c0.4,0 0.8,-0.4 0.8,-0.8s-0.3,-0.8 -0.8,-0.8zm0,24.6c0.4,0 0.8,-0.4 0.8,-0.8s-0.4,-0.8 -0.8,-0.8c-0.5,0 -0.8,0.4 -0.8,0.8s0.4,0.8 0.8,0.8zm-4.9,0c0.5,0 0.8,-0.4 0.8,-0.8s-0.4,-0.8 -0.8,-0.8c-0.4,0 -0.8,0.4 -0.8,0.8s0.4,0.8 0.8,0.8zm-9.8,0c0.5,0 0.8,-0.4 0.8,-0.8s-0.4,-0.8 -0.8,-0.8c-0.4,0 -0.8,0.4 -0.8,0.8s0.4,0.8 0.8,0.8zm9.8,-24.6c-0.4,0 -0.8,0.4 -0.8,0.8s0.4,0.8 0.8,0.8c0.5,0 0.8,-0.4 0.8,-0.8s-0.3,-0.8 -0.8,-0.8zm-4.9,0c-0.4,0 -0.8,0.4 -0.8,0.8s0.4,0.8 0.8,0.8s0.8,-0.4 0.8,-0.8s-0.3,-0.8 -0.8,-0.8zm2,17.7c0.1,0.1 0.2,0.1 0.3,0.1c0.2,0 0.3,-0.1 0.5,-0.2l6.4,-5.1c0.2,-0.1 0.3,-0.4 0.3,-0.6s-0.1,-0.4 -0.3,-0.6l-6.4,-5.1c-0.2,-0.2 -0.5,-0.2 -0.8,-0.1c-0.3,0.1 -0.4,0.4 -0.4,0.7l0,10.2c0,0.3 0.1,0.6 0.4,0.7zm1.1,-9.3l4.5,3.5l-4.5,3.5l0,-7zm11.6,-8.4c-0.4,0 -0.8,0.4 -0.8,0.8s0.4,0.8 0.8,0.8c0.5,0 0.8,-0.4 0.8,-0.8s-0.3,-0.8 -0.8,-0.8zm-19.6,0c-0.4,0 -0.8,0.4 -0.8,0.8s0.4,0.8 0.8,0.8c0.5,0 0.8,-0.4 0.8,-0.8s-0.3,-0.8 -0.8,-0.8z"/>
 </g>
</svg>